<svg width="60" height="60" xmlns="http://www.w3.org/2000/svg"><g fill="none" fill-rule="evenodd"><path d="M60 30c0 16.569-13.431 30-30 30C13.431 60 0 46.569 0 30 0 13.431 13.431 0 30 0c16.569 0 30 13.431 30 30" fill="#D9384E"/><path d="M27.343 26.67c.383-.812.987-1.298 1.582-1.308.413-.008.717.315.725.791.01.542-.21 1.218-.581 1.75-.435.664-1.122 1.119-2.027 1.364-.066.018-.313.088-.478.124.24-1.383.412-1.96.78-2.722m7.36-.127c.383-.811.986-1.298 1.582-1.308.413-.007.716.316.725.792.01.541-.21 1.218-.581 1.75-.435.663-1.122 1.118-2.027 1.364-.066.018-.313.087-.478.123.24-1.383.412-1.96.78-2.721m14.154.427c.49-1.321 1.074-1.971 1.801-1.984.612-.01.968.492.984 1.395.024 1.394-.461 3.864-.942 4.759-.4.745-.906 1.132-1.468 1.141-.662.012-1.035-.523-1.052-1.491-.016-.886.347-2.862.677-3.82m8.02 4.952a26.16 26.16 0 0 0 .092-3.765 26.03 26.03 0 0 0-1.412-7.321A26.545 26.545 0 0 0 41.45 5.379a26.553 26.553 0 0 0-6.353-1.963 26.891 26.891 0 0 0-6.28-.37A26.495 26.495 0 0 0 13.95 8.708a26.35 26.35 0 0 0-5.375 5.728 25.844 25.844 0 0 0-2.945 5.655l-.155.426.346.126.16-.425a25.439 25.439 0 0 1 2.953-5.537 26.015 26.015 0 0 1 14.26-10.056 26.008 26.008 0 0 1 11.773-.495c4.135.765 8.32 2.622 11.819 5.574a25.612 25.612 0 0 1 7.82 11.45 25 25 0 0 1 1.287 7.047 25.15 25.15 0 0 1-.125 3.61 25.212 25.212 0 0 1-.632 3.562 25.174 25.174 0 0 1-2.747 6.66 25.36 25.36 0 0 1-4.481 5.577 25.642 25.642 0 0 1-12.241 6.37 25.5 25.5 0 0 1-6.634.497 28.197 28.197 0 0 1-1.619-.137c-.264-.033-.541-.061-.793-.097-.27-.04-.552-.074-.804-.12a24.74 24.74 0 0 1-3.06-.714c-3.982-1.208-7.42-3.333-10.117-5.776-2.706-2.449-4.7-5.21-5.999-7.866-1.306-2.66-1.913-5.215-2.036-7.33-.128-2.12.194-3.783.521-4.867.14-.47.277-.837.382-1.105l.01.003c.734-1.565 1.259-2.187 1.897-2.198.308-.005.54.276.547.665.006.388.006.388-.387 2.58l-1.115 5.72 2.8-.049.563-3.095c.244-1.373.951-3.285 1.652-4.42.58-.97 1.127-1.45 1.662-1.46.37-.006.644.316.652.766.005.286-.03.613-.163 1.27l-1.361 6.887 2.82-.049.623-3.177c.605-3.096 2.163-5.799 3.357-5.82.33-.005.582.317.59.726.005.306-.05.756-.185 1.229-.671 2.81-.974 4.348-.961 5.042.022 1.287.923 2.15 2.178 2.128.865-.015 1.722-.459 2.327-1.164.396-.478.629-.88.958-1.693.086 1.759 1.12 2.736 2.904 2.705.959-.016 1.798-.293 2.532-.831.561-.413.884-.773 1.46-1.65l.459-.714c-.001.071-.003.142-.002.213.033 1.855 1.076 2.887 2.912 2.855.959-.017 1.798-.294 2.532-.832.56-.41.882-.77 1.454-1.64l.449-.731c-.002.08-.004.158-.002.238.032 1.82 1.109 2.869 2.928 2.838.942-.017 1.797-.294 2.516-.815.57-.408.906-.795 1.454-1.633l.162-.258c.13 1.818 1.145 2.614 3.278 2.577 1.422-.024 2.672-.44 3.436-1.175 1.042-.987 1.69-2.64 1.663-4.214-.033-1.904-1.124-2.754-3.439-2.714-1.306.022-2.31.319-3.027.922-1.041.838-1.827 2.473-1.916 3.948-.437.696-.449.713-.46.728-.89 1.258-1.759 1.878-2.671 1.894-.926.016-1.367-.567-1.388-1.798-.025-1.394.346-2.878 1.004-4.038.4-.729.923-1.116 1.469-1.125.264-.005.515.139.517.286a.456.456 0 0 1-.143.298c-.21.25-.306.482-.302.728.01.508.446.878 1.008.869.678-.012 1.18-.579 1.168-1.301-.016-.886-.834-1.315-2.454-1.287-1.34.023-2.424.403-3.19 1.09-.794.71-1.354 1.896-1.543 3.153a122.133 122.133 0 0 1-.827 1.347c-.893 1.265-1.782 1.89-2.73 1.906-.843.015-1.334-.6-1.353-1.683a8.04 8.04 0 0 1 .05-.887c1.322-.105 2.08-.299 2.867-.69 1.196-.611 1.924-1.576 1.906-2.56-.018-1.05-.871-1.577-2.524-1.549-1.257.022-2.31.369-3.076 1.006-.887.748-1.493 1.957-1.673 3.3-.803 1.249-.814 1.263-.822 1.275-.895 1.272-1.785 1.9-2.736 1.916-.843.015-1.334-.6-1.353-1.684a8.062 8.062 0 0 1 .05-.887c1.322-.105 2.08-.298 2.867-.69 1.197-.61 1.924-1.575 1.907-2.56-.019-1.05-.872-1.577-2.525-1.548-1.257.022-2.31.368-3.076 1.005-.75.634-1.3 1.599-1.56 2.694a81.103 81.103 0 0 1-.457 1.256c-.613 1.492-1.129 2.107-1.773 2.118-.31.006-.541-.317-.549-.746-.007-.429.159-1.535.445-2.807l.399-1.906a4.7 4.7 0 0 0 .142-1.29c-.022-1.266-.923-2.13-2.199-2.107-1.503.026-2.477.82-3.755 3.089.016-.307.03-.634.027-.818-.024-1.368-.841-2.192-2.138-2.17-1.544.027-2.68.987-3.855 3.234l-.003-.163c-.018-1.042-.087-1.429-.322-1.936-.32-.648-1.09-1.064-1.892-1.05-1.186.02-2.042.75-2.835 2.41l-.004-.003s-.07.14-.199.416a12.75 12.75 0 0 0-.48 1.255c-.369 1.113-.75 2.829-.676 5.03.069 2.195.627 4.856 1.904 7.642 1.27 2.783 3.251 5.69 5.992 8.306 2.732 2.61 6.256 4.929 10.427 6.316 1.045.345 2.113.627 3.236.845.286.06.549.098.823.145.293.05.566.08.851.12.568.058 1.14.109 1.716.131 2.305.11 4.674-.085 7.014-.595a27.01 27.01 0 0 0 12.832-6.833 26.61 26.61 0 0 0 4.644-5.898 26.346 26.346 0 0 0 3.43-10.723" fill="#FFF"/></g></svg>